<svg width="500" height="602" viewBox="0 0 500 602" fill="none" xmlns="http://www.w3.org/2000/svg">
<g clip-path="url(#clip0_1_13)">
<path d="M249.5 499.5C387.571 499.5 499.5 387.571 499.5 249.5C499.5 111.429 387.571 -0.5 249.5 -0.5C111.429 -0.5 -0.5 111.429 -0.5 249.5C-0.5 387.571 111.429 499.5 249.5 499.5Z" fill="#ED9639"/>
<path d="M166.789 281.941C166.789 289.968 165.357 297.14 162.492 303.458C159.693 309.775 155.819 315.015 150.871 319.177C145.142 324.083 138.827 327.576 131.926 329.657C125.09 331.738 116.398 332.778 105.852 332.778H42.3751V166.776H98.8204C110.539 166.777 119.1 167.223 124.504 168.114C129.973 169.006 135.376 170.976 140.715 174.023C146.249 177.219 150.35 181.53 153.02 186.955C155.754 192.307 157.121 198.438 157.121 205.35C157.121 213.378 155.266 220.475 151.555 226.644C147.844 232.739 142.603 237.496 135.832 240.914V241.806C145.337 243.962 152.857 248.421 158.391 255.185C163.99 261.948 166.789 270.867 166.789 281.941ZM118.742 213.712C118.742 210.962 118.124 208.212 116.887 205.462C115.715 202.712 113.599 200.668 110.539 199.33C107.805 198.141 104.387 197.509 100.285 197.435C96.2487 197.286 90.5521 197.212 83.1954 197.212H79.6798V232.33H85.5392C91.4636 232.33 96.5092 232.219 100.676 231.996C104.842 231.773 108.13 231.029 110.539 229.766C113.925 228.056 116.138 225.864 117.18 223.188C118.221 220.438 118.742 217.28 118.742 213.712ZM127.922 281.272C127.922 275.995 127.01 271.945 125.188 269.12C123.43 266.222 120.402 264.066 116.106 262.654C113.176 261.688 109.139 261.168 103.996 261.093C98.8529 261.019 93.4818 260.982 87.8829 260.982H79.6798V302.343H82.4142C92.961 302.343 100.513 302.306 105.07 302.231C109.628 302.157 113.827 301.191 117.668 299.333C121.574 297.475 124.244 295.022 125.676 291.975C127.173 288.853 127.922 285.286 127.922 281.272ZM322.063 272.688C322.063 293.201 316.594 308.921 305.657 319.846C294.719 330.772 278.606 336.234 257.317 336.234C236.028 336.234 219.914 330.772 208.977 319.846C198.104 308.921 192.668 293.238 192.668 272.799V166.776H230.364V270.347C230.363 281.867 232.479 290.451 236.711 296.1C240.943 301.748 247.811 304.573 257.317 304.573C266.692 304.573 273.528 301.86 277.825 296.434C282.186 291.009 284.367 282.313 284.368 270.347V166.776H322.063V272.688ZM473.626 280.603C473.625 296.954 467.538 310.258 455.364 320.515C443.254 330.697 426.783 335.789 405.95 335.789C393.905 335.789 383.391 334.599 374.407 332.221C365.487 329.768 357.121 326.684 349.309 322.968V283.167H353.411C361.158 290.228 369.817 295.654 379.387 299.444C389.023 303.235 398.267 305.13 407.122 305.13C409.4 305.13 412.395 304.907 416.106 304.461C419.817 304.015 422.844 303.272 425.188 302.231C428.052 300.894 430.396 299.221 432.219 297.215C434.107 295.208 435.051 292.235 435.051 288.296C435.051 284.654 433.684 281.532 430.95 278.931C428.28 276.255 424.342 274.211 419.133 272.799C413.664 271.313 407.87 269.938 401.75 268.674C395.696 267.337 389.999 265.664 384.661 263.657C372.421 259.124 363.599 252.992 358.196 245.262C352.857 237.458 350.188 227.796 350.188 216.276C350.188 200.817 356.243 188.219 368.352 178.482C380.526 168.672 396.151 163.767 415.227 163.766C424.797 163.767 434.237 164.844 443.547 166.999C452.922 169.081 461.028 171.719 467.864 174.915V213.154H463.86C458 207.803 450.806 203.344 442.278 199.776C433.814 196.134 425.155 194.314 416.301 194.313C413.176 194.314 410.051 194.574 406.926 195.094C403.866 195.54 400.904 196.432 398.04 197.769C395.5 198.884 393.319 200.594 391.497 202.898C389.674 205.128 388.762 207.692 388.762 210.59C388.762 214.976 390.227 218.357 393.157 220.735C396.086 223.04 401.62 225.158 409.758 227.09C415.097 228.354 420.207 229.58 425.09 230.769C430.038 231.958 435.344 233.594 441.008 235.675C452.141 239.837 460.344 245.523 465.618 252.732C470.956 259.867 473.625 269.157 473.626 280.603Z" fill="white"/>
<path d="M52.1392 578V531.455H70.7756C74.1998 531.455 77.0559 531.962 79.3438 532.977C81.6316 533.992 83.3513 535.402 84.5029 537.205C85.6544 538.992 86.2301 541.053 86.2301 543.386C86.2301 545.205 85.8665 546.803 85.1392 548.182C84.4119 549.545 83.412 550.667 82.1392 551.545C80.8816 552.409 79.4423 553.023 77.821 553.386V553.841C79.5938 553.917 81.2529 554.417 82.7983 555.341C84.3589 556.265 85.6241 557.561 86.5938 559.227C87.5635 560.879 88.0483 562.848 88.0483 565.136C88.0483 567.606 87.4347 569.811 86.2074 571.75C84.9953 573.674 83.1998 575.197 80.821 576.318C78.4423 577.439 75.5104 578 72.0256 578H52.1392ZM61.9801 569.955H70.0029C72.7453 569.955 74.7453 569.432 76.0029 568.386C77.2604 567.326 77.8892 565.917 77.8892 564.159C77.8892 562.871 77.5786 561.735 76.9574 560.75C76.3362 559.765 75.4498 558.992 74.2983 558.432C73.1619 557.871 71.8059 557.591 70.2301 557.591H61.9801V569.955ZM61.9801 550.932H69.2756C70.6241 550.932 71.821 550.697 72.8665 550.227C73.9271 549.742 74.7604 549.061 75.3665 548.182C75.9877 547.303 76.2983 546.25 76.2983 545.023C76.2983 543.341 75.6998 541.985 74.5029 540.955C73.321 539.924 71.6392 539.409 69.4574 539.409H61.9801V550.932Z" fill="#ED9639"/>
<path d="M123.202 531.455H133.043V561.682C133.043 565.076 132.232 568.045 130.611 570.591C129.005 573.136 126.755 575.121 123.861 576.545C120.967 577.955 117.596 578.659 113.747 578.659C109.884 578.659 106.505 577.955 103.611 576.545C100.717 575.121 98.4669 573.136 96.8608 570.591C95.2548 568.045 94.4517 565.076 94.4517 561.682V531.455H104.293V560.841C104.293 562.614 104.679 564.189 105.452 565.568C106.24 566.947 107.346 568.03 108.77 568.818C110.194 569.606 111.853 570 113.747 570C115.656 570 117.315 569.606 118.724 568.818C120.149 568.03 121.247 566.947 122.02 565.568C122.808 564.189 123.202 562.614 123.202 560.841V531.455ZM106.815 526.682C105.512 526.682 104.391 526.227 103.452 525.318C102.512 524.394 102.043 523.303 102.043 522.045C102.043 520.758 102.512 519.667 103.452 518.773C104.391 517.879 105.512 517.432 106.815 517.432C108.134 517.432 109.247 517.879 110.156 518.773C111.081 519.667 111.543 520.758 111.543 522.045C111.543 523.303 111.081 524.394 110.156 525.318C109.247 526.227 108.134 526.682 106.815 526.682ZM120.724 526.682C119.421 526.682 118.3 526.227 117.361 525.318C116.421 524.394 115.952 523.303 115.952 522.045C115.952 520.758 116.421 519.667 117.361 518.773C118.3 517.879 119.421 517.432 120.724 517.432C122.043 517.432 123.156 517.879 124.065 518.773C124.99 519.667 125.452 520.758 125.452 522.045C125.452 523.303 124.99 524.394 124.065 525.318C123.156 526.227 122.043 526.682 120.724 526.682Z" fill="#ED9639"/>
<path d="M141.139 578V531.455H159.503C163.018 531.455 166.018 532.083 168.503 533.341C171.003 534.583 172.904 536.348 174.207 538.636C175.526 540.909 176.185 543.583 176.185 546.659C176.185 549.75 175.518 552.409 174.185 554.636C172.851 556.848 170.92 558.545 168.389 559.727C165.874 560.909 162.829 561.5 159.253 561.5H146.957V553.591H157.662C159.541 553.591 161.101 553.333 162.344 552.818C163.586 552.303 164.51 551.53 165.116 550.5C165.738 549.47 166.048 548.189 166.048 546.659C166.048 545.114 165.738 543.811 165.116 542.75C164.51 541.689 163.579 540.886 162.321 540.341C161.079 539.78 159.51 539.5 157.616 539.5H150.98V578H141.139ZM166.276 556.818L177.844 578H166.98L155.662 556.818H166.276Z" fill="#ED9639"/>
<path d="M214.003 546.5C213.685 545.394 213.238 544.417 212.662 543.568C212.086 542.705 211.382 541.977 210.548 541.386C209.73 540.78 208.791 540.318 207.73 540C206.685 539.682 205.526 539.523 204.253 539.523C201.874 539.523 199.783 540.114 197.98 541.295C196.192 542.477 194.798 544.197 193.798 546.455C192.798 548.697 192.298 551.439 192.298 554.682C192.298 557.924 192.791 560.682 193.776 562.955C194.76 565.227 196.154 566.962 197.957 568.159C199.76 569.341 201.889 569.932 204.344 569.932C206.571 569.932 208.473 569.538 210.048 568.75C211.639 567.947 212.851 566.818 213.685 565.364C214.533 563.909 214.957 562.189 214.957 560.205L216.957 560.5H204.957V553.091H224.435V558.955C224.435 563.045 223.571 566.561 221.844 569.5C220.116 572.424 217.738 574.682 214.707 576.273C211.677 577.848 208.207 578.636 204.298 578.636C199.935 578.636 196.101 577.674 192.798 575.75C189.495 573.811 186.92 571.061 185.071 567.5C183.238 563.924 182.321 559.682 182.321 554.773C182.321 551 182.866 547.636 183.957 544.682C185.063 541.712 186.609 539.197 188.594 537.136C190.579 535.076 192.889 533.508 195.526 532.432C198.162 531.356 201.018 530.818 204.094 530.818C206.73 530.818 209.185 531.205 211.457 531.977C213.73 532.735 215.745 533.811 217.503 535.205C219.276 536.598 220.723 538.258 221.844 540.182C222.965 542.091 223.685 544.197 224.003 546.5H214.003Z" fill="#ED9639"/>
<path d="M231.827 578V531.455H263.19V539.568H241.668V550.659H261.577V558.773H241.668V569.886H263.281V578H231.827Z" fill="#ED9639"/>
<path d="M271.014 578V531.455H289.378C292.893 531.455 295.893 532.083 298.378 533.341C300.878 534.583 302.779 536.348 304.082 538.636C305.401 540.909 306.06 543.583 306.06 546.659C306.06 549.75 305.393 552.409 304.06 554.636C302.726 556.848 300.795 558.545 298.264 559.727C295.749 560.909 292.704 561.5 289.128 561.5H276.832V553.591H287.537C289.416 553.591 290.976 553.333 292.219 552.818C293.461 552.303 294.385 551.53 294.992 550.5C295.613 549.47 295.923 548.189 295.923 546.659C295.923 545.114 295.613 543.811 294.992 542.75C294.385 541.689 293.454 540.886 292.196 540.341C290.954 539.78 289.385 539.5 287.492 539.5H280.855V578H271.014ZM296.151 556.818L307.719 578H296.855L285.537 556.818H296.151Z" fill="#ED9639"/>
<path d="M313.014 578V531.455H331.651C335.075 531.455 337.931 531.962 340.219 532.977C342.507 533.992 344.226 535.402 345.378 537.205C346.529 538.992 347.105 541.053 347.105 543.386C347.105 545.205 346.741 546.803 346.014 548.182C345.287 549.545 344.287 550.667 343.014 551.545C341.757 552.409 340.317 553.023 338.696 553.386V553.841C340.469 553.917 342.128 554.417 343.673 555.341C345.234 556.265 346.499 557.561 347.469 559.227C348.438 560.879 348.923 562.848 348.923 565.136C348.923 567.606 348.31 569.811 347.082 571.75C345.87 573.674 344.075 575.197 341.696 576.318C339.317 577.439 336.385 578 332.901 578H313.014ZM322.855 569.955H330.878C333.62 569.955 335.62 569.432 336.878 568.386C338.135 567.326 338.764 565.917 338.764 564.159C338.764 562.871 338.454 561.735 337.832 560.75C337.211 559.765 336.325 558.992 335.173 558.432C334.037 557.871 332.681 557.591 331.105 557.591H322.855V569.955ZM322.855 550.932H330.151C331.499 550.932 332.696 550.697 333.741 550.227C334.802 549.742 335.635 549.061 336.241 548.182C336.863 547.303 337.173 546.25 337.173 545.023C337.173 543.341 336.575 541.985 335.378 540.955C334.196 539.924 332.514 539.409 330.332 539.409H322.855V550.932Z" fill="#ED9639"/>
<path d="M384.077 531.455H393.918V561.682C393.918 565.076 393.107 568.045 391.486 570.591C389.88 573.136 387.63 575.121 384.736 576.545C381.842 577.955 378.471 578.659 374.622 578.659C370.759 578.659 367.38 577.955 364.486 576.545C361.592 575.121 359.342 573.136 357.736 570.591C356.13 568.045 355.327 565.076 355.327 561.682V531.455H365.168V560.841C365.168 562.614 365.554 564.189 366.327 565.568C367.115 566.947 368.221 568.03 369.645 568.818C371.069 569.606 372.728 570 374.622 570C376.531 570 378.19 569.606 379.599 568.818C381.024 568.03 382.122 566.947 382.895 565.568C383.683 564.189 384.077 562.614 384.077 560.841V531.455Z" fill="#ED9639"/>
<path d="M427.264 544.841C427.082 543.008 426.302 541.583 424.923 540.568C423.545 539.553 421.673 539.045 419.31 539.045C417.704 539.045 416.348 539.273 415.241 539.727C414.135 540.167 413.287 540.78 412.696 541.568C412.12 542.356 411.832 543.25 411.832 544.25C411.802 545.083 411.976 545.811 412.355 546.432C412.749 547.053 413.287 547.591 413.969 548.045C414.651 548.485 415.438 548.871 416.332 549.205C417.226 549.523 418.181 549.795 419.196 550.023L423.378 551.023C425.408 551.477 427.272 552.083 428.969 552.841C430.666 553.598 432.135 554.53 433.378 555.636C434.62 556.742 435.582 558.045 436.264 559.545C436.961 561.045 437.317 562.765 437.332 564.705C437.317 567.553 436.59 570.023 435.151 572.114C433.726 574.189 431.666 575.803 428.969 576.955C426.287 578.091 423.052 578.659 419.264 578.659C415.507 578.659 412.234 578.083 409.446 576.932C406.673 575.78 404.507 574.076 402.946 571.818C401.401 569.545 400.59 566.735 400.514 563.386H410.037C410.143 564.947 410.59 566.25 411.378 567.295C412.181 568.326 413.249 569.106 414.582 569.636C415.931 570.152 417.454 570.409 419.151 570.409C420.817 570.409 422.264 570.167 423.491 569.682C424.734 569.197 425.696 568.523 426.378 567.659C427.06 566.795 427.401 565.803 427.401 564.682C427.401 563.636 427.09 562.758 426.469 562.045C425.863 561.333 424.969 560.727 423.787 560.227C422.62 559.727 421.188 559.273 419.491 558.864L414.423 557.591C410.499 556.636 407.401 555.144 405.128 553.114C402.855 551.083 401.726 548.348 401.741 544.909C401.726 542.091 402.476 539.629 403.991 537.523C405.522 535.417 407.62 533.773 410.287 532.591C412.954 531.409 415.984 530.818 419.378 530.818C422.832 530.818 425.848 531.409 428.423 532.591C431.014 533.773 433.029 535.417 434.469 537.523C435.908 539.629 436.651 542.068 436.696 544.841H427.264Z" fill="#ED9639"/>
</g>
<defs>
<clipPath id="clip0_1_13">
<rect width="500" height="602" fill="white"/>
</clipPath>
</defs>
</svg>
